<svg xmlns="http://www.w3.org/2000/svg" width="5000" height="1175" style="shape-rendering:geometricPrecision;text-rendering:geometricPrecision;image-rendering:optimizeQuality;fill-rule:evenodd;clip-rule:evenodd" class="logo-svg">
    <g style="fill: #FFFFFF">
        <path d="M171.5-.5h953v73c-200.667-.167-401.334 0-602 .5-62.123 4.088-118.123 24.42-168 61-54.497 44.813-84.997 102.647-91.5 173.5-8.606 67.308 4.394 129.975 39 188 24.398 36.733 55.564 66.233 93.5 88.5a7450.57 7450.57 0 0 1 229 120c31.332 27.83 39.832 61.33 25.5 100.5-9.737 15.053-23.57 23.553-41.5 25.5-145.666.5-291.333.667-437 .5V-.5Z" style="opacity:.995"/>
        <path d="M1684.5 139.5c48.04-.923 94.71 6.577 140 22.5l18 8a5411.582 5411.582 0 0 0-23.5 79.5c-.39.928-1.05 1.595-2 2-31.47-16.244-64.97-25.077-100.5-26.5-47.14-4.212-91.14 5.454-132 29-46.67 31.764-75.5 75.597-86.5 131.5-10.88 54.093-6.21 106.76 14 158 30.24 64.559 80.74 102.059 151.5 112.5 37.25 4.038 73.91 1.038 110-9a762.044 762.044 0 0 0 48-17 2647.414 2647.414 0 0 1 18 77.5c-.33.667-.67 1.333-1 2-44.82 20.132-91.82 31.298-141 33.5-65.65 5.074-126.98-8.593-184-41-57.4-36.546-95.56-87.713-114.5-153.5-16.07-60.255-17.74-120.921-5-182 27.49-109.158 94.99-180.325 202.5-213.5 28.97-7.828 58.31-12.328 88-13.5Z" style="opacity:.987"/>
        <path d="M4265.5 150.5c105.96-5.22 192.79 32.447 260.5 113a381.506 381.506 0 0 1 18.5 27.5l-435 284.5c50.13 70.028 118.46 101.528 205 94.5 59.25-.856 111.92-19.523 158-56a351.544 351.544 0 0 1 17-14.5 3255.105 3255.105 0 0 1 34 85c-76.66 56.175-162.66 80.342-258 72.5-107.82-8.91-188.98-59.743-243.5-152.5-37.56-72.021-47.23-147.687-29-227 17.38-64.281 51.55-117.781 102.5-160.5 49.48-40.229 106.15-62.396 170-66.5Zm10 85c33.73-2.796 66.4 1.704 98 13.5 17.29 7.474 32.29 18.141 45 32-113.67 73.833-227.33 147.667-341 221.5-19.15-74.726-2.32-140.059 50.5-196 40.51-41.503 89.68-65.17 147.5-71ZM1905.5 151.5h89c-.17 155.334 0 310.667.5 466a153335.355 153335.355 0 0 0 242-465c37.09-.996 74.26-1.33 111.5-1v579h-90c.17-146 0-292-.5-438-76.83 145.667-153.67 291.333-230.5 437-40.66 1-81.33 1.333-122 1v-579Z" style="opacity:.986"/>
        <path d="M2470.5 151.5h391v579h-88v-494h-215c.17 105.667 0 211.334-.5 317 .4 35.282-3.93 69.949-13 104-11.32 30.656-32.15 52.156-62.5 64.5-33.04 13.032-66.38 13.865-100 2.5-.33-23.343 0-46.676 1-70 48.98 15.274 76.81-2.392 83.5-53a320.428 320.428 0 0 0 3-29c.5-140.333.67-280.666.5-421Z" style="opacity:.988"/>
        <path d="M2951.5 151.5h89c-.17 155.334 0 310.667.5 466a153335.355 153335.355 0 0 0 242-465c37.09-.996 74.26-1.33 111.5-1v579h-90c.17-146 0-292-.5-438a137996.369 137996.369 0 0 1-231 437c-40.43.997-80.93 1.33-121.5 1v-579Z" style="opacity:.986"/>
        <path d="M3482.5 151.5h89v233h274v-233h87v579h-87v-268h-274v268h-89v-579Z" style="opacity:.992"/>
        <path d="M4553.5 151.5h429v82h-168v497h-92v-497h-169v-82Z" style="opacity:.981"/>
        <path d="M-.5 1124.5v-73c204.347.49 408.681-.01 613-1.5 66.785-6.58 125.118-31.91 175-76 37.216-36.924 60.383-81.424 69.5-133.5 12.268-63.471 5.602-124.804-20-184-24.798-50.465-61.631-89.632-110.5-117.5a31552.582 31552.582 0 0 1-211-109c-31.281-16.858-47.948-43.191-50-79 .99-32.369 17.323-51.369 49-57 146-.5 292-.667 438-.5v831H-.5Z" style="opacity:.993"/>
        <path d="M4259.5 923.5h20c.89 17.066 9.55 23.566 26 19.5 6.25-4.882 9.59-11.382 10-19.5h19c-1.29 23.957-13.96 35.957-38 36-23.43-.425-35.76-12.425-37-36Z" style="opacity:.925"/>
        <path d="M2078.5 976.5c32.69-3.092 53.85 10.908 63.5 42 2.8 11.91 3.63 23.91 2.5 36h-97c1.27 29.77 16.77 45.44 46.5 47 8.85-.64 17.68-1.8 26.5-3.5a59.69 59.69 0 0 0 11.5-4.5c1.9 6.11 3.74 12.28 5.5 18.5-10.4 5.02-21.4 8.02-33 9-27.18 4.34-50.02-3.49-68.5-23.5-12.72-19.95-16.72-41.61-12-65 5.99-30.82 24.15-49.483 54.5-56Zm0 19c27.44-.896 41.11 12.44 41 40h-72c2.3-19.93 12.64-33.26 31-40Z" style="opacity:.947"/>
        <path d="M2260.5 1174.5h-26c.3-65.01-.04-130.01-1-195h24a95.332 95.332 0 0 0 1.5 22c14-19.792 33.17-27.959 57.5-24.5 25.75 6.25 41.58 22.417 47.5 48.5 4.38 20.51 2.71 40.51-5 60-14.89 28.69-38.39 40.19-70.5 34.5-11.47-2.81-20.64-8.98-27.5-18.5-.5 24.33-.67 48.66-.5 73Zm33-177c25.39-.458 40.56 11.88 45.5 37 4.01 20.99-.49 39.82-13.5 56.5-10.18 8.46-21.84 11.46-35 9-16.46-4.79-26.29-15.63-29.5-32.5-.67-11.33-.67-22.67 0-34 3.73-18.56 14.56-30.56 32.5-36Z" style="opacity:.95"/>
        <path d="M2717.5 976.5c38.63-2.268 60.8 15.732 66.5 54 .67 7.33.67 14.67 0 22a2379.8 2379.8 0 0 1-97.5 3c1.24 23.68 13.24 38.51 36 44.5 17.15 2.26 33.65.09 49.5-6.5 2.13 6.54 3.63 13.2 4.5 20-22.13 8.25-44.79 10.09-68 5.5-24.12-7.12-38.95-22.95-44.5-47.5-5.25-25.47-.92-49.14 13-71 10.54-13.019 24.04-21.019 40.5-24Zm1 19c27.38-.957 41.05 12.38 41 40h-72c1.75-20.25 12.09-33.59 31-40Z" style="opacity:.947"/>
        <path d="M3427.5 1174.5h-26c.26-65.01-.07-130.01-1-195h23c.65 7.648 1.15 15.315 1.5 23 13.78-20.274 32.95-28.774 57.5-25.5 21.41 4.074 36.25 16.241 44.5 36.5 9.19 27 7.52 53.33-5 79-14.51 22.18-35.01 31.68-61.5 28.5-13.75-1.79-24.59-8.29-32.5-19.5-.5 24.33-.67 48.66-.5 73Zm32-177c26.81-.7 42.31 12.3 46.5 39 2.89 17.99-.44 34.66-10 50-14.12 14.95-30.62 18.12-49.5 9.5-10.03-6.05-16.19-14.88-18.5-26.5-.67-12.33-.67-24.67 0-37 3.39-18.22 13.89-29.88 31.5-35Z" style="opacity:.953"/>
        <path d="M3672.5 976.5c48.58-.925 74.24 22.908 77 71.5-3.61 53.28-31.94 77.28-85 72-29.59-8.27-46.42-27.77-50.5-58.5-2.87-21.84 1.79-41.84 14-60 11.77-13.965 26.6-22.298 44.5-25Zm1 20c21.59-2.122 36.42 6.88 44.5 27 6.74 19.43 5.74 38.43-3 57-14.06 21.81-32.56 26.64-55.5 14.5-15.17-14.16-21.67-31.66-19.5-52.5.87-14.62 6.37-27.12 16.5-37.5 5.21-3.94 10.88-6.773 17-8.5Z" style="opacity:.952"/>
        <path d="M4075.5 976.5c12.67-1.032 25 .468 37 4.5 16.45 8.814 25.28 22.65 26.5 41.5-.01 32.04.82 64.04 2.5 96-7.67.17-15.34 0-23-.5-.98-5.43-1.81-10.93-2.5-16.5-15.99 18.29-35.82 24.13-59.5 17.5-22.07-10.99-29.91-28.49-23.5-52.5 5.47-13.47 14.97-22.97 28.5-28.5 16.82-5.86 34.16-8.69 52-8.5.92-21.25-9.25-32.58-30.5-34-12.97.66-24.97 4.326-36 11-2.17-5.85-4.34-11.683-6.5-17.5 10.95-6.48 22.61-10.647 35-12.5Zm18 72h21c.17 9.01 0 18.01-.5 27-5.04 16.54-16.21 25.54-33.5 27-15-1-23-9-24-24 1.28-12.74 7.95-21.24 20-25.5a318.33 318.33 0 0 1 17-4.5Z" style="opacity:.949"/>
        <path d="M4711.5 976.5c38.46-2.04 60.63 15.96 66.5 54 .67 7.33.67 14.67 0 22a2379.8 2379.8 0 0 1-97.5 3c1.24 23.68 13.24 38.51 36 44.5 17.15 2.26 33.65.09 49.5-6.5 2.13 6.54 3.63 13.2 4.5 20-22.13 8.2-44.8 10.03-68 5.5-24.12-7.12-38.95-22.95-44.5-47.5-5.25-25.48-.92-49.15 13-71 10.55-13.022 24.05-21.022 40.5-24Zm1 19c27.38-.957 41.05 12.38 41 40h-72c1.75-20.25 12.09-33.59 31-40Z" style="opacity:.947"/>
        <path d="M4999.5 1032.5v30c-8.78 45.05-35.78 63.88-81 56.5-9.93-3.04-17.76-8.88-23.5-17.5-.5 24.33-.67 48.66-.5 73h-26c.26-65.01-.08-130.01-1-195h23c.65 7.648 1.15 15.315 1.5 23 11.36-17.432 27.53-26.099 48.5-26 25.59 1.084 43.42 13.418 53.5 37 2.29 6.34 4.12 12.67 5.5 19Zm-73-35c26.8-.71 42.3 12.29 46.5 39 2.81 17.96-.53 34.63-10 50-14.12 14.95-30.62 18.12-49.5 9.5-10.07-6.08-16.24-14.91-18.5-26.5-.67-12.33-.67-24.67 0-37 3.39-18.22 13.89-29.88 31.5-35Z" style="opacity:.953"/>
        <path d="M3858.5 978.5c14.34-.167 28.67 0 43 .5 15 .661 27.84 6.161 38.5 16.5 10.46 23.92 3.29 40.08-21.5 48.5 30.09 7.68 39.26 25.85 27.5 54.5-12.27 12.99-27.44 19.82-45.5 20.5a337.924 337.924 0 0 1-62-.5c-.33-45.67 0-91.34 1-137a373.39 373.39 0 0 1 19-3Zm12 18c12.54-.753 24.88.414 37 3.5 13.85 7.93 15.51 17.93 5 30-6.76 4.14-14.09 6.47-22 7-8.99.5-17.99.67-27 .5v-40c2.56.302 4.89-.032 7-1Zm-7 58c15.91-.76 31.58.74 47 4.5 14.86 7.35 18.02 18.18 9.5 32.5-6.48 5.49-13.98 8.65-22.5 9.5a127.751 127.751 0 0 1-34 .5v-47Z" style="opacity:.95"/>
        <path d="M1428.5 979.5h25c.26 37.73-.24 75.4-1.5 113 19.73-38.48 41.23-75.81 64.5-112a241.063 241.063 0 0 1 31-1v139h-25c-.02-37.68.14-75.34.5-113a2312.685 2312.685 0 0 1-64 112c-10.08.99-20.25 1.32-30.5 1v-139Z" style="opacity:.946"/>
        <path d="M1646.5 979.5h25v56h65v-56h26v139h-26v-62h-65v62h-25v-139Z" style="opacity:.965"/>
        <path d="M1843.5 979.5h112v21h-43v118h-26v-118h-43v-21Z" style="opacity:.949"/>
        <path d="M2456.5 979.5h25v56h65v-56h26v139h-26v-62h-65v62h-25v-139Z" style="opacity:.965"/>
        <path d="M2855.5 979.5h112v21h-43v118h-26v-118h-43v-21Z" style="opacity:.949"/>
        <path d="M3186.5 979.5h116v139h-27v-118h-63v118h-26v-139Z" style="opacity:.94"/>
        <path d="M4238.5 979.5h24c.1 37.35-.07 74.68-.5 112 20.07-37.82 41.4-74.82 64-111a237.226 237.226 0 0 1 30.5-1v139h-25c-.04-37.69.46-75.36 1.5-113-20.5 37.98-42 75.31-64.5 112-9.98 1-19.98 1.33-30 1v-139Z" style="opacity:.961"/>
        <path d="M4471.5 979.5h93v119c4.6-.3 9.1.03 13.5 1-.17 20.99-.33 41.99-.5 63h-21c-.62-14.66-.95-29.33-1-44h-95c-.05 14.67-.38 29.34-1 44h-21c.01-21.02-.16-42.02-.5-63 4.12-.64 8.29-1.31 12.5-2 11.12-18.45 17.62-38.45 19.5-60a710.179 710.179 0 0 0 1.5-58Zm23 20h44v99c-20.67.17-41.34 0-62-.5 11.01-20.05 16.85-41.55 17.5-64.5.5-11.33.67-22.66.5-34Z" />
        <path d="M3028.5 1031.5h71v19h-71v-19Z" style="opacity:.967"/>

    </g>
</svg>
